<svg width="512" height="512" viewBox="0 0 512 512" fill="none" xmlns="http://www.w3.org/2000/svg">
<path d="M132.129 280.774H231.226V206.452H198.194V165.161H115.613V247.742H132.129V280.774ZM214.71 222.968V264.258H148.645V247.742H198.194V222.968H214.71ZM132.129 181.677H181.677V231.226H132.129V181.677ZM148.645 297.29H231.226V313.806H148.645V297.29ZM148.645 330.323H231.226V346.839H148.645V330.323ZM148.645 363.355H231.226V379.871H148.645V363.355ZM421.161 0C371.076 0 330.323 40.7535 330.323 90.8387C330.323 107.586 334.617 120.832 340.678 132.129H295.878C281.245 132.129 267.338 136.96 256 145.87C248.667 140.106 240.202 136.258 231.226 134.103V92.6472L221.622 90.2441C215.098 88.609 209.672 83.9267 207.096 77.7166C204.519 71.4983 205.048 64.3468 208.516 58.5744L213.587 50.0852L181.124 17.6227L172.66 22.6932C166.887 26.1781 159.711 26.6901 153.468 24.1135C147.274 21.5453 142.609 16.128 140.982 9.6289L138.579 0H92.639L90.2359 9.6289C88.609 16.1363 83.9432 21.5535 77.7497 24.1218C71.5314 26.7066 64.3468 26.1863 58.5497 22.6932L50.0934 17.631L17.631 50.0852L22.4206 58.0955C26.0625 64.1652 26.624 71.7048 23.9154 78.2534C21.4792 84.1332 16.3427 88.5595 10.1657 90.112L0 92.6472V138.587L10.1574 141.122C16.3345 142.675 21.471 147.101 23.9071 152.981C26.624 159.529 26.0625 167.069 22.4041 173.147L17.6227 181.149L49.5484 213.05V219.549L12.0898 256.999C4.29419 264.795 0 275.167 0 286.2V512H99.0968V456.696L103.094 450.692C104.109 449.164 104.886 447.521 105.786 445.935H215.535C219.367 464.756 236.057 478.968 255.992 478.968C275.927 478.968 292.616 464.756 296.448 445.935H445.935C455.044 445.935 462.452 438.528 462.452 429.419V191.001C465.524 179.836 473.146 170.562 481.932 159.868C496.029 142.716 512 123.276 512 90.8387C512 40.7535 471.246 0 421.161 0V0ZM351.463 148.645C354.42 152.535 357.434 156.276 360.39 159.868C361.868 161.668 363.314 163.427 364.709 165.161H280.774V247.742H388.344C394.298 255.612 402.894 261.384 412.903 263.424V396.387H264.258V160.545C273.028 152.882 284.119 148.645 295.878 148.645H351.463ZM396.387 99.0968H388.129C383.579 99.0968 379.871 95.3972 379.871 90.8387C379.871 86.2803 383.579 82.5806 388.129 82.5806C392.679 82.5806 396.387 86.2803 396.387 90.8387V99.0968ZM429.419 181.677H412.903V115.613H429.419V181.677ZM396.387 198.194H446.175L446.158 214.71H396.387V198.194ZM421.161 247.742C410.409 247.742 401.325 240.813 397.907 231.226H444.408C440.997 240.813 431.913 247.742 421.161 247.742ZM379.871 231.226H297.29V181.677H376.13C377.699 184.675 378.979 187.755 379.871 191.001V231.226ZM38.2926 178.44C43.041 168.522 43.4126 156.895 39.168 146.638C35.0555 136.712 26.6901 129.057 16.5161 125.762V105.455C26.6901 102.177 35.0555 94.5135 39.168 84.5791C43.4126 74.3308 43.041 62.6952 38.3009 52.7773L52.7525 38.3257C62.4805 43.1236 73.984 43.5613 84.0754 39.3745C94.1502 35.1959 101.954 26.7809 105.422 16.5079H125.803C129.263 26.7726 137.076 35.1959 147.15 39.3745C157.258 43.553 168.745 43.1236 178.473 38.3257L192.9 52.7443C188.094 62.464 187.665 73.951 191.843 84.0423C196.022 94.1254 204.445 101.938 214.718 105.414V125.762C210.539 127.108 206.782 129.396 203.338 132.121H179.522C180.901 126.77 181.677 121.261 181.677 115.613C181.677 79.1866 152.039 49.5484 115.613 49.5484C79.1866 49.5484 49.5484 79.1866 49.5484 115.613C49.5484 128.008 53.0085 139.826 59.3424 150.107C53.5866 152.692 49.5484 158.456 49.5484 165.161V189.696L38.2926 178.44ZM66.0645 165.161H82.5806V280.774C76.5357 280.774 70.945 282.525 66.0645 285.366V165.161ZM82.5806 148.645H78.7819C70.5899 139.545 66.0645 127.959 66.0645 115.613C66.0645 88.287 88.287 66.0645 115.613 66.0645C142.939 66.0645 165.161 88.287 165.161 115.613C165.161 121.319 164.195 126.852 162.321 132.121L99.0968 132.129C89.9881 132.129 82.5806 139.537 82.5806 148.645ZM16.5161 495.484V462.452H82.5806V495.484H16.5161ZM89.3523 441.534L86.4206 445.935H16.5161V286.2C16.5161 279.577 19.0926 273.35 23.7667 268.676L49.5484 242.903V356.517C49.5484 369.375 44.544 381.465 35.4519 390.549L47.1288 402.226C59.3424 390.02 66.0645 373.793 66.0645 356.517V313.806C66.0645 304.698 73.472 297.29 82.5806 297.29C83.2083 297.29 83.745 297.761 83.8359 298.38L98.5187 401.152C98.8986 403.852 99.0968 406.611 99.0968 409.352C99.0968 420.847 95.7275 431.979 89.3523 441.534ZM99.0968 292.137V148.645L216.163 148.637C227.939 148.645 238.964 153.038 247.742 160.751V396.387H114.515L100.179 296.043C99.9886 294.672 99.584 293.384 99.0968 292.137V292.137ZM280.774 429.419V437.677C280.774 451.336 269.659 462.452 256 462.452C242.341 462.452 231.226 451.336 231.226 437.677V429.419H112.772C114.275 424.06 115.093 418.527 115.357 412.903H412.903C422.012 412.903 429.419 405.496 429.419 396.387V263.424C435.638 262.161 441.245 259.369 446.109 255.645L445.935 429.419H280.774ZM469.174 149.388C461.072 159.24 452.773 169.406 448.165 181.677H445.935V115.613H454.194C467.852 115.613 478.968 104.498 478.968 90.8387C478.968 77.1799 467.852 66.0645 454.194 66.0645C440.535 66.0645 429.419 77.1799 429.419 90.8387V99.0968H412.903V90.8387C412.903 77.1799 401.788 66.0645 388.129 66.0645C374.47 66.0645 363.355 77.1799 363.355 90.8387C363.355 104.498 374.47 115.613 388.129 115.613H396.387V181.677H394.157C389.558 169.398 381.25 159.24 373.149 149.388C360.217 133.64 346.839 117.355 346.839 90.8387C346.839 49.8539 380.185 16.5161 421.161 16.5161C462.138 16.5161 495.484 49.8539 495.484 90.8387C495.484 117.355 482.106 133.64 469.174 149.388ZM445.935 99.0968V90.8387C445.935 86.2803 449.643 82.5806 454.194 82.5806C458.744 82.5806 462.452 86.2803 462.452 90.8387C462.452 95.3972 458.744 99.0968 454.194 99.0968H445.935ZM313.806 280.774H280.774V264.258H313.806V280.774ZM396.387 280.774H330.323V264.258H396.387V280.774ZM396.387 313.806H280.774V297.29H396.387V313.806ZM396.387 346.839H280.774V330.323H396.387V346.839ZM280.774 379.871V363.355H297.29V379.871H280.774ZM313.806 363.355H330.323V379.871H313.806V363.355ZM346.839 363.355H363.355V379.871H346.839V363.355ZM247.742 66.0645V82.5806H231.226V66.0645H247.742ZM280.774 66.0645V82.5806H264.258V66.0645H280.774ZM313.806 66.0645V82.5806H297.29V66.0645H313.806Z" fill="url(#paint0_linear_89_5144)"/>
<defs>
<linearGradient id="paint0_linear_89_5144" x1="256" y1="512" x2="256" y2="0" gradientUnits="userSpaceOnUse">
<stop stop-color="#9F2FFF"/>
<stop offset="1" stop-color="#0BB1D3"/>
</linearGradient>
</defs>
</svg>
