<svg width="50" height="50" viewBox="0 0 50 50" fill="none" xmlns="http://www.w3.org/2000/svg">
<g clip-path="url(#clip0_940_32)">
<path d="M24.9998 4.1665C13.4894 4.1665 4.16651 13.4894 4.16651 24.9998C4.16414 29.3733 5.53904 33.6365 8.09612 37.1846C10.6532 40.7326 14.2626 43.3854 18.4123 44.7665C19.454 44.9478 19.8436 44.3228 19.8436 43.7748C19.8436 43.2811 19.8165 41.6415 19.8165 39.8957C14.5832 40.8603 13.229 38.6207 12.8123 37.4478C12.5769 36.8478 11.5623 34.9998 10.6769 34.504C9.94776 34.1144 8.90609 33.1498 10.6498 33.1248C12.2915 33.0978 13.4623 34.6353 13.854 35.2603C15.729 38.4103 18.7248 37.5248 19.9207 36.979C20.104 35.6248 20.6498 34.7144 21.2498 34.1936C16.6144 33.6728 11.7707 31.8748 11.7707 23.9061C11.7707 21.6394 12.5769 19.7665 13.9061 18.3061C13.6978 17.7853 12.9686 15.6498 14.1144 12.7853C14.1144 12.7853 15.8582 12.2394 19.8436 14.9228C21.5396 14.452 23.2919 14.2151 25.0519 14.2186C26.8228 14.2186 28.5936 14.4519 30.2603 14.9207C34.2436 12.2123 35.9894 12.7873 35.9894 12.7873C37.1353 15.6519 36.4061 17.7873 36.1978 18.3082C37.5248 19.7665 38.3332 21.6144 38.3332 23.9061C38.3332 31.9019 33.4644 33.6728 28.829 34.1936C29.5832 34.8436 30.2353 36.0936 30.2353 38.0478C30.2353 40.8332 30.2082 43.0728 30.2082 43.7769C30.2082 44.3228 30.5998 44.9728 31.6415 44.7644C35.777 43.3682 39.3705 40.7102 41.9163 37.1647C44.4621 33.6192 45.832 29.3647 45.8332 24.9998C45.8332 13.4894 36.5103 4.1665 24.9998 4.1665Z" fill="white"/>
</g>
<defs>
<clipPath id="clip0_940_32">
<rect width="50" height="50" fill="white"/>
</clipPath>
</defs>
</svg>
