<svg width="269" height="235" viewBox="0 0 269 235" fill="none" xmlns="http://www.w3.org/2000/svg">
<path d="M221.474 0C221.148 3.74058 220.411 12.8003 224.239 18.8673C234.539 29.6011 250.749 42.3045 249.069 60.8214C248.136 71.4074 249.828 77.2782 257.646 89.6441C257.646 56.0349 278.93 65.4398 262.948 28.9628C254.935 19.4304 248.657 21.9899 235.786 18.0888C228.131 15.7752 222.948 3.74058 221.474 0ZM2.66439 0.00509617C0.378711 17.7627 -2.97608 36.6733 5.17777 50.2482C15.331 67.0833 37.3833 68.6784 52.9797 71.4342C56.5513 72.0597 58.3946 73.8663 56.5698 76.2985C50.5205 84.3479 41.6716 90.9079 39.566 100.996C38.5793 105.67 38.5803 111.617 42.0143 114.092C53.9555 122.703 66.877 128.309 79.6445 134.679C83.0665 135.431 85.9139 141.176 92.5605 130.143C95.0436 141.419 99.0988 158.121 110.717 159.357C128.282 161.243 144.894 115.158 169.106 127.187V117.267C169.735 105.548 174.538 97.5979 183.321 93.8866C190.857 90.6951 199.314 89.7893 206.861 94.7593C221.976 104.713 216.153 118.384 212.77 135.749C211.274 143.355 211.458 150.744 216.196 155.802L212.261 154.516C185.999 145.024 217.183 124.537 211.133 106.977C208.346 101.55 205.05 97.0857 199.845 95.7569C192.483 93.8879 186.064 96.8398 180.22 100.615C169.735 107.419 173.02 127.009 173.02 140.106C175.969 160.3 161.538 171.651 149.155 181.436C142.27 186.876 140.806 197.171 141.619 206.497C143.734 209.694 147.192 208.93 149.155 212.879C154.88 208.191 160.095 202.394 163.706 197.171C161.418 190.8 162.134 182.073 166.482 177.907C169.594 174.9 172.923 171.308 177.444 172.454C180.382 173.219 182.735 176.99 182.193 180.506C179.396 198.47 164.519 208.013 154.208 220.562L158.133 227.276C156.832 229.531 154.717 231.391 154.208 234.016C157.808 235.328 162.882 235.328 166.482 234.016C173.183 232.334 181.207 232.156 186.097 227.276C189.219 206.7 200.333 189.972 215.058 177.334C220.946 172.276 234.358 172.199 233.22 163.485C229.945 138.781 237.796 114.834 253.984 98.7433C245.44 79.6441 220.024 75.1748 200.073 83.5962C200.073 83.5962 204.909 75.3914 211.74 75.0894C209.279 68.3612 208.14 64.3276 203.771 59.2658C192.646 46.3585 176.793 45.9508 161.256 43.1887C138.627 39.1602 141.229 13.9673 131.817 11.1975C117.776 7.05054 103.51 9.13742 88.3015 8.94122C82.738 9.13742 77.0249 6.32561 74.5592 0.524905C74.8888 12.1314 75.1642 24.0042 80.7884 32.897C88.0575 44.3685 101.708 42.6192 110.717 43.5544L112.669 45.4183L111.53 46.7471H91.4123C83.7312 45.6145 75.2596 41.4802 71.6457 32.1453C65.8307 17.0658 51.5202 19.4571 38.9262 19.8228C28.3013 18.5296 19.3017 23.3583 10.1189 17.9245C5.71558 15.3025 4.13577 4.67318 2.66439 0.00509617ZM143.231 0.00509617C143.231 0.00509617 142.386 15.6809 146.289 23.3863C156.037 42.6409 171.792 35.863 189.758 42.0637C205.079 47.3434 211.769 55.8425 217.191 73.6982C226.808 71.7578 236.914 73.2752 244.797 79.3918C239.57 67.1521 244.743 60.257 240.687 50.2252C232.902 30.9503 220.183 23.6105 201.544 19.2457C180.77 14.3877 154.443 23.9558 143.231 0.00509617Z" fill="#651D32"/>
<path fill-rule="evenodd" clip-rule="evenodd" d="M150.93 56.5685C149.304 56.5558 147.59 56.8615 145.78 57.6336C141.93 59.3268 139.22 62.7858 136.91 65.7174L115.712 92.634C112.243 97.0422 109.651 100.76 111.69 105.111C113.262 108.414 116.417 109.955 119.431 111.424L144.619 123.642L169.341 92.2531L150.334 83.0163L141.822 93.8291L146.419 96.051L138.721 105.842L130.003 101.597L153.912 71.2365L162.629 75.4676L159.214 79.8045L172.995 86.5059L184.912 71.3563L160.83 59.6517C157.728 58.1534 154.519 56.594 150.93 56.5685ZM89.4531 57.5635C87.8234 57.5521 86.12 57.8578 84.3168 58.6312C80.4643 60.332 77.7362 63.7707 75.4202 66.7226L54.2603 93.6316C50.7722 98.0474 48.1796 101.764 50.2322 106.102C51.7871 109.412 54.9532 110.953 57.9686 112.402L83.1501 124.639L107.862 93.2583L88.8513 84.0075L80.3505 94.8267L84.9381 97.0562L77.2505 106.833L68.5458 102.607L92.4348 72.2328L101.141 76.4728L97.7294 80.802L111.527 87.4958L123.432 72.3462L99.3613 60.6569C96.2559 59.1484 93.0366 57.5877 89.4531 57.5635Z" fill="white"/>
</svg>
