<svg width="50" height="50" viewBox="0 0 50 50" fill="none" xmlns="http://www.w3.org/2000/svg">
<g clip-path="url(#clip0_940_29)">
<path d="M38.1979 38.2063H32.6458V29.5042C32.6458 27.4292 32.6042 24.7583 29.75 24.7583C26.8562 24.7583 26.4146 27.0167 26.4146 29.3521V38.2063H20.8604V20.3125H26.1937V22.75H26.2667C27.0125 21.3458 28.825 19.8604 31.5333 19.8604C37.1583 19.8604 38.2 23.5646 38.2 28.3833V38.2063H38.1979ZM14.5896 17.8646C14.1657 17.8651 13.746 17.782 13.3543 17.62C12.9626 17.458 12.6068 17.2203 12.3072 16.9205C12.0076 16.6207 11.7701 16.2647 11.6084 15.8729C11.4466 15.4812 11.3638 15.0613 11.3646 14.6375C11.365 13.9997 11.5545 13.3763 11.9093 12.8461C12.264 12.316 12.7679 11.903 13.3574 11.6593C13.9468 11.4156 14.5953 11.3521 15.2208 11.477C15.8463 11.6018 16.4207 11.9093 16.8715 12.3606C17.3222 12.812 17.629 13.3868 17.753 14.0125C17.8771 14.6381 17.8128 15.2865 17.5683 15.8757C17.3238 16.4648 16.9101 16.9682 16.3796 17.3222C15.849 17.6763 15.2274 17.865 14.5896 17.8646ZM17.3729 38.2063H11.8042V20.3125H17.375V38.2063H17.3729ZM40.9792 6.25H9.01875C7.48542 6.25 6.25 7.45833 6.25 8.95208V41.0479C6.25 42.5417 7.4875 43.75 9.01667 43.75H40.9708C42.5 43.75 43.75 42.5417 43.75 41.0479V8.95208C43.75 7.45833 42.5 6.25 40.9708 6.25H40.9792Z" fill="white"/>
</g>
<defs>
<clipPath id="clip0_940_29">
<rect width="50" height="50" fill="white"/>
</clipPath>
</defs>
</svg>
