<svg id="svg" xmlns="http://www.w3.org/2000/svg" xmlns:xlink="http://www.w3.org/1999/xlink" width="400" height="414" viewBox="0, 0, 400,414" version="1.1"><g id="svgg"><path id="path0" d="M171.622 6.941 C 170.746 7.472,170.741 7.473,169.795 7.137 C 167.828 6.438,167.620 6.635,167.303 9.500 C 167.229 10.160,166.954 11.944,166.690 13.464 C 166.427 14.984,166.114 17.414,165.996 18.864 C 165.670 22.850,165.138 24.172,164.289 23.106 C 163.771 22.457,163.768 22.463,163.394 24.590 C 163.270 25.300,162.994 26.335,162.782 26.890 C 161.914 29.162,161.874 32.235,162.613 39.931 C 163.109 45.099,163.101 45.826,162.515 48.164 C 162.249 49.229,161.972 50.730,161.900 51.500 C 161.715 53.484,161.478 54.137,160.892 54.284 C 160.382 54.412,159.968 55.170,159.574 56.698 C 159.460 57.139,159.294 60.560,159.206 64.300 C 159.005 72.808,158.727 74.576,157.173 77.212 C 156.305 78.684,156.170 79.775,156.723 80.844 C 157.515 82.377,156.029 85.924,154.695 85.682 C 153.731 85.507,152.906 87.613,152.219 92.000 C 151.594 95.990,151.583 96.163,151.466 103.316 L 151.355 110.133 150.433 110.616 C 148.784 111.482,145.528 113.435,144.300 114.296 C 136.004 120.114,130.590 123.468,128.668 123.983 C 128.210 124.105,126.995 124.758,125.968 125.434 C 123.303 127.186,122.289 127.629,121.277 127.482 C 120.533 127.374,120.271 127.471,118.578 128.481 C 117.547 129.096,116.163 129.780,115.502 130.000 C 114.841 130.220,114.060 130.603,113.767 130.850 C 113.474 131.098,113.024 131.473,112.767 131.684 C 112.510 131.896,111.353 132.976,110.195 134.084 C 106.420 137.700,103.938 139.849,101.300 141.786 C 98.481 143.855,96.565 145.488,96.270 146.073 C 95.555 147.489,94.815 147.986,92.363 148.699 C 90.907 149.122,89.833 149.679,88.777 150.556 C 88.302 150.950,86.800 153.084,86.800 153.365 C 86.800 154.754,82.274 157.734,80.484 157.524 C 78.808 157.327,78.289 157.763,71.617 164.958 L 69.533 167.205 68.517 167.088 C 66.765 166.886,65.373 166.599,63.134 165.976 C 61.943 165.644,60.008 165.202,58.834 164.993 C 57.660 164.784,55.665 164.371,54.400 164.075 C 50.807 163.234,47.985 163.294,44.300 164.289 C 42.760 164.705,40.915 165.172,40.200 165.328 C 38.732 165.647,37.292 166.145,36.705 166.536 C 35.837 167.117,31.158 166.706,29.628 165.914 C 29.294 165.742,28.094 165.455,26.961 165.276 C 25.827 165.097,24.468 164.782,23.940 164.574 C 22.313 163.936,19.703 164.134,18.679 164.972 C 17.012 166.338,17.283 171.141,19.054 171.611 C 19.519 171.735,20.867 172.097,22.049 172.417 C 25.010 173.217,27.355 173.600,29.296 173.600 C 31.953 173.600,32.717 174.045,31.700 175.000 C 30.709 175.931,31.187 176.286,33.891 176.621 C 34.776 176.731,36.190 176.996,37.033 177.211 C 38.906 177.686,41.018 177.706,46.500 177.301 C 52.267 176.875,53.379 176.900,54.866 177.489 C 56.289 178.053,57.431 178.331,59.037 178.503 C 60.097 178.617,60.183 178.666,60.304 179.220 C 60.376 179.547,60.674 179.965,60.967 180.152 C 62.012 180.816,62.049 181.431,61.219 184.332 C 59.599 190.001,59.656 199.466,61.345 205.076 L 61.879 206.852 61.535 209.276 C 60.762 214.729,61.491 218.743,64.462 225.394 C 66.365 229.654,67.082 230.650,70.085 233.200 C 71.057 234.025,71.952 234.790,72.076 234.900 C 77.338 239.592,89.005 246.646,97.245 250.119 C 97.875 250.384,98.865 250.815,99.445 251.077 C 101.451 251.982,103.904 253.054,105.000 253.504 C 105.605 253.752,106.910 254.291,107.900 254.700 C 108.890 255.110,110.420 255.698,111.300 256.006 C 112.180 256.314,114.340 257.149,116.100 257.862 C 121.622 260.100,123.535 260.802,129.600 262.817 C 135.143 264.657,141.792 266.707,145.198 267.624 C 149.452 268.770,155.316 270.206,156.987 270.511 C 160.185 271.094,160.232 271.226,160.899 281.500 C 161.071 284.140,161.290 287.515,161.386 289.000 C 161.482 290.485,161.535 293.365,161.503 295.400 C 161.420 300.731,161.530 301.765,163.187 311.300 C 163.397 312.510,163.713 315.030,163.890 316.900 C 164.067 318.770,164.249 320.570,164.296 320.900 C 164.342 321.230,164.750 324.785,165.203 328.800 C 166.047 336.280,168.120 349.375,169.494 355.900 C 170.199 359.250,170.470 360.251,172.004 365.200 C 172.764 367.649,173.070 369.075,173.704 373.100 C 174.435 377.746,176.311 383.840,178.488 388.640 C 179.253 390.325,179.957 392.240,180.203 393.300 C 181.320 398.119,182.061 399.335,183.763 399.143 C 185.106 398.992,185.411 398.558,185.637 396.472 C 185.812 394.863,185.723 384.778,185.499 380.700 C 185.450 379.820,185.361 377.795,185.301 376.200 C 184.917 366.020,184.116 353.948,183.496 349.000 C 183.191 346.570,182.864 343.632,182.694 341.800 C 182.638 341.195,182.549 340.250,182.496 339.700 C 182.444 339.150,182.217 336.315,181.993 333.400 C 181.768 330.485,181.410 326.570,181.197 324.700 C 180.984 322.830,180.715 320.310,180.600 319.100 C 180.320 316.153,177.893 298.739,177.492 296.800 C 177.436 296.525,177.309 292.700,177.211 288.300 C 177.112 283.900,176.921 279.216,176.786 277.890 C 176.299 273.111,175.704 273.399,186.500 273.185 C 201.806 272.882,208.888 272.203,217.900 270.175 C 218.890 269.952,220.268 269.645,220.962 269.493 C 228.466 267.846,232.691 266.335,238.026 263.392 C 248.196 257.782,254.800 253.211,254.800 251.783 C 254.800 251.281,257.236 248.804,260.200 246.293 C 261.355 245.315,262.345 244.466,262.400 244.407 C 263.288 243.456,267.296 240.222,268.987 239.092 C 270.019 238.403,274.291 234.219,276.330 231.900 C 277.104 231.020,278.179 229.798,278.719 229.185 C 279.258 228.572,279.880 227.849,280.100 227.578 C 280.320 227.308,280.915 226.594,281.422 225.993 C 283.536 223.485,286.249 219.665,286.934 218.234 C 287.337 217.390,287.867 216.430,288.112 216.100 C 289.836 213.773,293.270 205.056,294.304 200.382 C 294.580 199.135,294.899 198.021,295.013 197.907 C 295.151 197.768,302.130 197.662,316.160 197.584 C 334.623 197.482,337.289 197.429,338.700 197.136 C 341.869 196.476,348.525 195.785,354.600 195.484 C 360.355 195.199,360.866 195.117,364.400 193.916 C 367.659 192.809,369.663 192.343,372.200 192.102 C 372.915 192.034,373.860 191.903,374.300 191.811 C 374.740 191.719,375.685 191.630,376.400 191.613 C 377.115 191.595,378.060 191.498,378.500 191.395 C 378.940 191.293,379.570 191.207,379.900 191.205 C 380.649 191.198,382.966 190.121,383.126 189.704 C 383.414 188.953,381.628 188.133,379.200 187.900 C 378.375 187.821,377.054 187.592,376.264 187.390 C 375.474 187.188,374.441 186.966,373.968 186.895 C 373.495 186.825,373.050 186.731,372.978 186.686 C 372.857 186.612,366.741 185.630,364.200 185.277 C 363.001 185.110,363.034 185.117,362.600 184.950 C 362.435 184.886,361.175 184.783,359.800 184.722 C 358.425 184.660,354.780 184.296,351.700 183.912 C 343.670 182.912,340.355 182.600,336.500 182.481 C 329.480 182.265,322.824 181.985,320.600 181.813 C 317.986 181.611,314.540 181.473,305.100 181.193 C 295.927 180.920,294.650 180.772,294.234 179.931 C 294.117 179.694,293.514 178.195,292.893 176.600 C 290.537 170.540,285.477 161.809,281.991 157.790 C 281.796 157.565,281.336 157.010,280.968 156.558 C 278.556 153.586,273.881 148.911,271.311 146.900 C 270.889 146.570,270.429 146.188,270.288 146.052 C 270.148 145.915,269.038 145.060,267.822 144.152 C 257.122 136.154,242.514 130.072,228.200 127.655 C 225.933 127.272,216.237 127.167,211.000 127.468 C 203.933 127.874,200.244 128.172,195.500 128.718 C 190.080 129.341,178.437 133.545,175.858 135.810 C 174.608 136.908,171.797 138.077,171.390 137.670 C 171.281 137.561,171.144 136.173,171.084 134.586 C 171.025 132.999,170.831 130.395,170.653 128.800 C 170.091 123.760,170.339 119.587,171.318 117.625 C 171.701 116.857,171.774 116.855,175.121 117.522 L 177.742 118.045 179.018 117.423 C 179.720 117.080,180.568 116.800,180.903 116.800 C 182.660 116.800,182.740 115.986,181.197 113.800 C 178.847 110.471,177.719 109.581,174.036 108.148 L 172.368 107.500 172.472 87.900 C 172.530 77.120,172.629 67.760,172.694 67.100 C 173.232 61.595,173.761 58.282,175.278 50.900 C 176.935 42.839,176.801 40.132,174.341 32.000 L 173.100 27.900 173.109 24.800 C 173.118 21.984,173.186 21.397,173.851 18.400 C 175.434 11.272,175.437 10.815,173.926 7.790 C 173.173 6.283,172.882 6.175,171.622 6.941 M150.482 127.371 C 150.540 127.465,150.815 128.837,151.092 130.421 C 151.370 132.004,151.817 134.470,152.087 135.900 C 152.858 139.997,153.654 147.485,154.190 155.700 C 154.693 163.408,154.274 173.547,153.436 173.916 C 152.020 174.540,143.070 174.125,137.500 173.177 C 132.624 172.348,131.970 172.320,128.600 172.801 C 125.237 173.281,125.433 173.295,122.066 172.333 C 114.800 170.257,114.030 170.119,107.400 169.711 C 99.349 169.215,99.143 169.201,98.006 169.070 C 94.780 168.696,94.888 167.571,98.501 163.885 C 100.247 162.105,101.395 160.808,103.004 158.800 C 105.540 155.633,107.720 153.597,112.009 150.389 C 119.630 144.686,124.656 141.275,127.607 139.802 C 128.758 139.227,129.986 138.542,130.337 138.279 C 130.687 138.015,131.016 137.800,131.067 137.800 C 131.119 137.800,131.733 137.476,132.431 137.080 C 133.129 136.684,135.905 135.231,138.600 133.851 C 144.464 130.847,146.787 129.526,148.544 128.196 C 149.837 127.217,150.272 127.032,150.482 127.371 M210.800 140.216 C 218.314 140.774,232.132 143.671,237.900 145.899 C 253.805 152.041,268.509 164.335,274.985 176.904 C 276.618 180.074,276.814 179.910,271.442 179.866 C 267.571 179.834,258.495 179.470,249.700 178.993 C 247.610 178.879,243.245 178.553,240.000 178.269 C 233.670 177.713,231.377 177.702,208.000 178.122 C 200.238 178.262,198.922 178.152,193.100 176.878 C 186.593 175.454,182.587 174.749,177.400 174.114 C 173.113 173.589,172.137 173.194,171.531 171.741 C 170.658 169.649,170.514 166.674,171.181 164.515 C 171.671 162.929,171.737 160.800,171.317 160.143 C 170.862 159.433,170.600 156.494,170.466 150.596 L 170.340 145.091 171.920 144.359 C 179.116 141.024,196.591 139.162,210.800 140.216 M88.086 184.924 C 89.104 185.568,89.367 185.991,88.908 186.247 C 88.040 186.733,88.538 187.223,90.871 188.177 C 97.523 190.898,109.026 191.391,114.956 189.209 C 117.344 188.331,118.048 188.420,119.800 189.822 C 122.394 191.899,127.373 192.703,132.800 191.921 C 137.323 191.270,139.862 191.116,146.233 191.108 C 149.826 191.104,152.808 191.145,152.859 191.200 C 153.100 191.455,153.200 196.690,153.298 214.200 C 153.430 237.751,153.429 237.713,154.300 241.300 C 156.429 250.065,156.229 250.868,152.182 249.814 C 146.260 248.272,144.827 247.923,142.700 247.506 C 139.678 246.913,139.312 246.860,135.893 246.509 C 130.727 245.979,128.338 245.270,125.100 243.305 C 122.046 241.452,120.867 240.953,119.300 240.849 C 117.247 240.713,114.713 239.769,105.900 235.856 C 96.736 231.787,97.116 232.067,87.000 221.921 L 80.300 215.202 79.754 213.651 C 78.106 208.971,78.284 202.451,80.269 194.800 C 82.625 185.717,84.865 182.886,88.086 184.924 M178.700 193.316 C 184.869 194.231,192.668 195.141,201.700 195.999 C 204.120 196.229,207.900 196.633,210.100 196.898 C 226.322 198.851,237.197 198.560,240.853 196.075 C 242.876 194.700,245.877 194.450,252.900 195.075 C 254.880 195.250,260.280 195.577,264.900 195.799 C 279.465 196.501,279.706 196.591,277.851 200.658 C 273.196 210.863,265.523 221.036,256.700 228.698 C 255.710 229.558,254.630 230.499,254.300 230.788 C 251.962 232.841,246.725 236.224,243.300 237.894 C 224.518 247.052,217.864 249.743,207.000 252.576 C 195.334 255.617,179.727 256.758,176.031 254.840 C 175.097 254.356,175.069 254.201,174.916 248.626 C 174.758 242.864,174.660 241.121,174.184 235.600 C 173.769 230.788,173.707 230.301,173.293 228.600 C 173.146 227.995,172.792 225.340,172.506 222.700 C 172.221 220.060,171.851 217.213,171.685 216.373 C 170.647 211.123,171.061 195.161,172.278 193.496 C 172.786 192.801,174.840 192.743,178.700 193.316 " stroke="none" fill="#e4141c" fill-rule="evenodd"></path></g></svg>